PathFileType	4	(X/Y/Z)	Patient4_TMGait_0pt7_01_left_15.trc.trc
DataRate	CameraRate	NumFrames	NumMarkers	Units	OrigDataRate	OrigDataStartFrame	OrigNumFrames
87.500000000000	87.500000000000	6	33	mm	87.500000000000	89	       141
Frame#	Time	Sacral			L.Shoulder			Chest			R.Shoulder			Neck			R.ASIS			L.ASIS			R.Thigh.Superior			R.Thigh.Lateral			R.Thigh.Inferior			R.Patella			L.Thigh.Superior			L.Thigh.Lateral			L.Thigh.Inferior			L.Patella			L.Shank.Superior			L.Shank.Lateral			L.Shank.Inferior			R.Shank.Superior			R.Shank.Lateral			R.Shank.Inferior			R.Heel			R.Midfoot.Superior			R.Midfoot.Lateral			R.Toe			L.Heel			L.Midfoot.Lateral			L.Midfoot.Superior			L.Toe			L.Elbow			L.Wrist			R.Elbow			R.Wrist			
		X1	Y1	Z1	X2	Y2	Z2	X3	Y3	Z3	X4	Y4	Z4	X5	Y5	Z5	X6	Y6	Z6	X7	Y7	Z7	X8	Y8	Z8	X9	Y9	Z9	X10	Y10	Z10	X11	Y11	Z11	X12	Y12	Z12	X13	Y13	Z13	X14	Y14	Z14	X15	Y15	Z15	X16	Y16	Z16	X17	Y17	Z17	X18	Y18	Z18	X19	Y19	Z19	X20	Y20	Z20	X21	Y21	Z21	X22	Y22	Z22	X23	Y23	Z23	X24	Y24	Z24	X25	Y25	Z25	X26	Y26	Z26	X27	Y27	Z27	X28	Y28	Z28	X29	Y29	Z29	X30	Y30	Z30	X31	Y31	Z31	X32	Y32	Z32	X33	Y33	Z33	

89	18.175714285714	852.240284326952	993.749991594623	504.652004042180	1034.030141897288	1428.701181169774	328.556194660255	1134.266841378784	1352.588799732080	489.608242489786	1050.480620574859	1427.136681590613	662.364566679700	1038.786445700359	1486.288776294434	483.179246096434	1082.156341828474	939.102979547199	624.100763556702	1066.769754185145	952.451787559988	345.560304745255	1145.614887147776	750.197699691453	598.749408088770	1076.434095065656	634.117355812448	658.121122433852	1161.735297997406	590.792908893128	580.720207723920	1172.079004825250	502.092318906547	587.394365391325	1112.588093654247	737.848503842416	368.753900472292	1027.558742690112	621.665154140646	301.814901789706	1117.414468374233	537.561788407546	355.631509463189	1108.635680617080	449.859758899771	350.892438954428	1035.041217669555	393.962307110101	346.776857792356	889.729306916642	363.326496673388	302.356583556522	867.561824391163	236.586370561194	358.978540236245	1151.501230942287	411.182577547173	594.893310725792	1087.464201190378	302.572865590547	656.625677380608	1138.871173315990	211.115814365235	594.973159935669	1016.503804436958	42.241835516728	561.812877734344	1185.882375131015	99.167406869711	599.691781937139	1099.153584125229	36.728364771083	637.177587838178	1306.737837704633	49.526791392388	628.189425658183	672.656149344584	185.759880941873	402.092787083735	725.503502666428	137.977602889693	320.098929810396	831.024796936982	139.762575183676	338.871640762889	901.634681294921	32.782314229063	308.035338676980	1018.450286409445	1085.992413273063	197.163542049962	1268.404100026728	1064.728217727349	232.772583985865	940.608492652625	1095.904716423035	772.146537702445	931.845258963844	834.099553734293	763.330251933548	
90	18.187142857143	851.578286645740	995.291754588296	507.758922833670	1032.355715055078	1429.912443961875	330.713620520108	1134.205864170203	1353.477035109758	490.556294256967	1052.331630003113	1427.805226602588	664.356658411344	1038.732974732504	1487.263670517769	485.456929101024	1081.963822524813	940.027243832097	625.933439941057	1065.507046991103	953.520119985918	347.658794512459	1143.029848829199	749.477642176547	601.870281381053	1072.000036295467	634.135133243132	660.037263901517	1157.143869672682	590.127304510073	582.826535280254	1166.347679679737	501.458924014450	589.105804284258	1116.665913104627	741.899629768110	370.648717087964	1036.074493817052	623.657261779128	302.704798606146	1128.736173305150	541.833804252133	356.302891579378	1121.688900944344	453.099418174921	351.209255705976	1047.043780170812	397.003962993701	347.200242723209	900.698781250091	370.154133233981	303.242144810679	875.667661182286	243.784150775038	359.618378372289	1145.269268633879	410.744034246758	596.323150146704	1080.499677480471	302.325680871123	657.618294485914	1131.509093806640	210.811327953482	595.652099833305	1008.498884609552	42.182609796690	561.980776341562	1177.861626129399	99.122338593777	600.011403029805	1091.111028859064	36.665336533606	637.325644506317	1298.695060465748	49.464154076850	628.417880686402	679.593236352726	199.284666117517	403.386420602192	730.466343957448	149.780049120638	320.959375072316	836.424143727067	147.149924058405	339.460157946282	902.405305931109	34.802453270779	307.652023481185	1010.544874745562	1086.402779503465	201.641830410451	1259.638626332170	1052.267700163194	235.739744951057	950.076240690141	1093.664731793744	775.276532228567	950.183350980799	831.617949368191	764.969109550519	
91	18.198571428571	850.775865225545	996.733211096614	510.726474791259	1030.530990310891	1430.976282767143	332.727273933782	1134.039834229303	1354.204624003822	491.313625643917	1054.192859426771	1428.344744115554	666.185106872649	1038.630052177796	1488.149200067448	487.592373146659	1081.619454820463	940.837491972196	627.694899922070	1064.085267381066	954.539101306034	349.761520726396	1140.261181058859	748.780751423080	604.704977152226	1067.555134288903	634.166773860838	661.840674292467	1152.441034923021	589.465690985545	584.763612815489	1160.494744135524	500.840874925884	590.735365898881	1120.386537495562	746.228859175738	372.457793557180	1044.180809847681	626.161473697285	303.442600708651	1139.506025791500	546.706986252871	356.877541504066	1134.405078799041	457.054800104622	351.445027622215	1059.024209265041	400.563467248815	347.539964476608	911.897904243006	376.662495199628	304.045189927024	884.702382929192	250.604868796682	360.239045985652	1138.953180294119	410.320241485071	597.665963798584	1073.467498829215	302.103233136911	658.556633060807	1124.110037823804	210.517796256512	596.279019041783	1000.435816814209	42.155300178215	562.126477392135	1169.839287552266	99.007951789417	600.281737214548	1083.020571346664	36.603068182853	637.450900442162	1290.637967297686	49.235212169015	628.594289743640	687.928463806725	210.796377062140	404.708412208561	737.204353290718	160.236460037096	321.813490372885	843.391070580400	154.283006083158	340.019134379533	905.786804308741	37.696738404326	307.151817375997	1002.721121244590	1086.782107381611	205.971057443114	1250.084659389806	1038.753846714177	238.528537791771	959.734667933193	1091.501713203478	778.332766595258	969.282550410028	829.502809134251	766.679743857146	
92	18.210000000000	849.868760284977	998.055341431952	513.568895733818	1028.598874539622	1431.908119530362	334.599073026822	1133.771423785627	1354.792162305020	491.912301964688	1056.037170643727	1428.790474839626	667.851310894102	1038.494571913535	1488.963462687538	489.578294039069	1081.159280103712	941.569470662048	629.396320731504	1062.510352488982	955.508341834817	351.860059498147	1137.367368831285	748.152003551520	607.176962290975	1063.162921058509	634.246208346381	663.531727127063	1147.673067815182	588.824328414478	586.521039704960	1154.576773554038	500.255812914028	592.273658929646	1123.720289744712	750.803807345713	374.189344351418	1051.829320393420	629.151337220210	304.027205448155	1149.665527736597	552.133248040883	357.336650040620	1146.710372100282	461.697509067203	351.532023701917	1070.920911095362	404.590714028221	347.744365623650	923.240554133287	382.687081707017	304.717185947458	894.679415128712	256.832189377980	360.780424333159	1132.598022094761	409.930419757039	598.926210675563	1066.398849817985	301.930461566523	659.440780327719	1116.701912360851	210.252592610842	596.869361198024	992.340129571095	42.163927879360	562.260238731609	1161.834611916320	98.853512174414	600.516111167482	1074.908781495433	36.552364269510	637.566103838893	1282.585741388002	48.887988502093	628.736392467006	697.604913042630	219.952298785947	405.978741886586	745.724232529120	168.958872298785	322.605106965370	851.998491143390	160.848263884239	340.488083810342	911.981968671528	41.290559111131	306.549448894107	995.026377278918	1087.129750133449	210.161732920546	1239.638788852612	1024.295669356417	241.104469363073	969.565755060108	1089.450923909767	781.254244560981	989.096955196622	827.874216304604	768.401525722428	
93	18.221428571429	848.891811089636	999.253465057551	516.305632213132	1026.598628979932	1432.729845355476	336.334057610886	1133.403654560409	1355.272107966202	492.387268699406	1057.832215346348	1429.183851230315	669.359208610159	1038.337014686340	1489.726008717926	491.410322563079	1080.616170512065	942.256798308767	631.036846864351	1060.785513926185	956.429588962872	353.931946432716	1134.388738948603	747.613859062093	609.259936423629	1058.834684872912	634.394021007371	665.113592006025	1142.854782474860	588.211376947253	588.108607918138	1148.614669600099	499.716062603410	593.719446314732	1126.656791418178	755.585320312594	375.847930781055	1058.999384597203	632.582462615447	304.457804079201	1159.185394336999	558.046740171443	357.663809223045	1158.550978161371	466.980495651456	351.419845896062	1082.692000850682	409.020781184342	347.773323238474	934.665460862835	388.082684221592	305.214366946396	905.603083857130	262.283632241522	361.190266404465	1126.217850504622	409.589288778246	600.110811877594	1059.299601730958	301.823565111058	660.270689372852	1109.293662636268	210.029949236409	597.437682254693	984.232231000747	42.208496058523	562.388159986938	1153.860285283095	98.687166636257	600.729990595668	1066.796465340538	36.518987399608	637.678864780594	1274.550906574304	48.469453606917	628.858910770451	708.567496644912	226.544236556077	407.122487312513	755.999820994755	175.669090942373	323.280995729744	862.282067692114	166.567299547117	340.816241615461	921.074295924003	45.314587256837	305.855193959190	987.488501180844	1087.454881199512	214.228608513092	1228.192257669571	1009.041926856153	243.439111400129	979.564177865969	1087.549420797907	783.987242653461	1009.600424416564	826.858499320210	770.043404816589	
94	18.232857142857	847.874713706017	1000.336336817815	518.953730719168	1024.563606186007	1433.463821678924	337.938735444951	1132.940342781461	1355.681496928052	492.771889960155	1059.543547029303	1429.564180564149	670.714547946117	1038.160726138398	1490.453500441066	493.087110473123	1080.016431236954	942.925596072648	632.602412338230	1058.913072264439	957.305461649534	355.942301900650	1131.346492378466	747.169609961804	610.966953048999	1054.547255780326	634.619393929419	666.592006998200	1137.979286053638	587.629195850226	589.549298303724	1142.604502014141	499.229233949482	595.079054827980	1129.199075672596	760.526518515605	377.433040628709	1065.687036896357	636.394192419500	304.735615629233	1168.054833200769	564.365170827263	357.847322339134	1169.883972725572	472.836623012038	351.079908359966	1094.304014704303	413.777615706580	347.601288127023	946.126737019879	392.732879467162	305.505889725929	917.459632250183	266.821584667215	361.427113051115	1119.805473190226	409.306232063206	601.227589378688	1052.160648504937	301.790705064878	661.047873197430	1101.881384662178	209.859655932712	597.995894503745	976.125992045943	42.286058989503	562.513278591273	1145.922903160589	98.533108810618	600.939191346325	1058.697202943396	36.504093971320	637.792406663939	1266.539162679975	48.019326782888	628.972361977252	720.765435105327	230.490399987898	408.077483940356	767.975164413811	180.206327285274	323.794661531903	874.234741949861	171.221377851634	340.962217362968	933.029990969287	49.458282601667	305.066607057769	980.117489042973	1087.771637947164	218.185937445635	1215.637009460417	993.182087881038	245.511420698462	989.730451260974	1085.834629012114	786.490917348683	1030.774119143671	826.583558490099	771.493271132582	
